<?xml version="1.0" encoding="UTF-8"?>
<svg id="Layer_1" data-name="Layer 1" xmlns="http://www.w3.org/2000/svg" viewBox="0 0 29.31 32.39">
  <defs>
    <style>
      .cls-1 {
        fill: #fff;
      }
    </style>
  </defs>
  <g>
    <path class="cls-1" d="m12.38,19.69c-.54,1.72-2.15,1.78-3.38,1.12,0-.66,0-2.12,0-3.88.03-.5.05-1.12.05-1.81,0-.69-.02-1.31-.05-1.81,0-2.73,0-5.37,0-6.44,0-2.58-1.46-5.17-1.46-5.17,0,0-1.46,2.58-1.46,5.17,0,.21,0,.48,0,.8-.04.53-.07,1.27-.07,2.08,0,.81.03,1.55.07,2.08,0,3.55,0,7.73,0,8.99-1.23.66-2.85.6-3.38-1.12l-1.27,1.51s.18,1.28,1.85,1.77c.96.28,2-.17,2.58-.08.07.01.13.03.2.05-.01.18,0,.36.01.56,0,.03,0,.06,0,.09,0,0,0,0,0,0v5.36c0,.17-.03.38,0,.56h0v.12h2.92v-6.69c.07-.02.14-.04.22-.05.58-.1,1.62.36,2.58.08,1.68-.49,1.85-1.77,1.85-1.77l-1.27-1.51Z"/>
    <path class="cls-1" d="m9.81,30.06c-.07-.24-.31-.42-.62-.42h-3.3c-.3,0-.55.18-.62.42,0,0,0,0,0-.01-.01.05-.02.09-.02.14,0,.28.27.51.6.51h3.41c.33,0,.6-.23.6-.51,0-.05,0-.1-.02-.14,0,0,0,0,0,.01Z"/>
  </g>
  <g>
    <path class="cls-1" d="m17.07,12.7c.54-1.72,2.15-1.78,3.38-1.12,0,.66,0,2.12,0,3.88-.03.5-.05,1.12-.05,1.81,0,.69.02,1.31.05,1.81,0,2.73,0,5.37,0,6.44,0,2.58,1.46,5.17,1.46,5.17,0,0,1.46-2.58,1.46-5.17,0-.21,0-.48,0-.8.04-.53.07-1.27.07-2.08,0-.81-.03-1.55-.07-2.08,0-3.55,0-7.73,0-8.99,1.23-.66,2.85-.6,3.38,1.12l1.27-1.51s-.18-1.28-1.85-1.77c-.96-.28-2,.17-2.58.08-.07-.01-.13-.03-.2-.05.01-.18,0-.36-.01-.56,0-.03,0-.06,0-.09,0,0,0,0,0,0V3.43c0-.17.03-.38,0-.56h0v-.12h-2.92v6.69c-.07.02-.14.04-.22.05-.58.1-1.62-.36-2.58-.08-1.68.49-1.85,1.77-1.85,1.77l1.27,1.51Z"/>
    <path class="cls-1" d="m19.65,2.33c.07.24.31.42.62.42h3.3c.3,0,.55-.18.62-.42,0,0,0,0,0,.01.01-.05.02-.09.02-.14,0-.28-.27-.51-.6-.51h-3.41c-.33,0-.6.23-.6.51,0,.05,0,.1.02.14,0,0,0,0,0-.01Z"/>
  </g>
</svg>