<?xml version="1.0" encoding="UTF-8"?>
<svg id="Layer_1" data-name="Layer 1" xmlns="http://www.w3.org/2000/svg" viewBox="0 0 29.31 36.35">
  <defs>
    <style>
      .cls-1 {
        fill: #231f20;
      }
    </style>
  </defs>
  <g>
    <path class="cls-1" d="m12.38,22.3c-.54,2.03-2.15,2.1-3.38,1.32,0-.78,0-2.5,0-4.57.03-.59.05-1.32.05-2.14,0-.81-.02-1.55-.05-2.14,0-3.22,0-6.33,0-7.59,0-3.05-1.46-6.09-1.46-6.09,0,0-1.46,3.04-1.46,6.09,0,.25,0,.57,0,.95-.04.63-.07,1.49-.07,2.45,0,.96.03,1.82.07,2.45,0,4.18,0,9.11,0,10.6-1.23.78-2.85.71-3.38-1.32l-1.27,1.78s.18,1.5,1.85,2.08c.96.33,2-.2,2.58-.09.07.01.13.04.2.06-.01.21,0,.43.01.66,0,.04,0,.07,0,.11,0,0,0,0,0,0v6.31c0,.2-.03.44,0,.66h0v.14h2.92v-7.88c.07-.02.14-.05.22-.06.58-.11,1.62.42,2.58.09,1.68-.58,1.85-2.08,1.85-2.08l-1.27-1.78Z"/>
    <path class="cls-1" d="m9.81,34.51c-.07-.28-.31-.5-.62-.5h-3.3c-.3,0-.55.21-.62.5,0,0,0,0,0-.01-.01.05-.02.11-.02.17,0,.33.27.6.6.6h3.41c.33,0,.6-.27.6-.6,0-.06,0-.11-.02-.17,0,0,0,0,0,.01Z"/>
  </g>
  <g>
    <path class="cls-1" d="m17.07,14.06c.54-2.03,2.15-2.1,3.38-1.32,0,.78,0,2.5,0,4.57-.03.59-.05,1.32-.05,2.14,0,.81.02,1.55.05,2.14,0,3.22,0,6.33,0,7.59,0,3.05,1.46,6.09,1.46,6.09,0,0,1.46-3.04,1.46-6.09,0-.25,0-.57,0-.95.04-.63.07-1.49.07-2.45,0-.96-.03-1.82-.07-2.45,0-4.18,0-9.11,0-10.6,1.23-.78,2.85-.71,3.38,1.32l1.27-1.78s-.18-1.5-1.85-2.08c-.96-.33-2,.2-2.58.09-.07-.01-.13-.04-.2-.06.01-.21,0-.43-.01-.66,0-.04,0-.07,0-.11,0,0,0,0,0,0V3.14c0-.2.03-.44,0-.66h0v-.14h-2.92v7.88c-.07.02-.14.05-.22.06-.58.11-1.62-.42-2.58-.09-1.68.58-1.85,2.08-1.85,2.08l1.27,1.78Z"/>
    <path class="cls-1" d="m19.65,1.84c.07.28.31.5.62.5h3.3c.3,0,.55-.21.62-.5,0,0,0,0,0,.01.01-.05.02-.11.02-.17,0-.33-.27-.6-.6-.6h-3.41c-.33,0-.6.27-.6.6,0,.06,0,.11.02.17,0,0,0,0,0-.01Z"/>
  </g>
</svg>